<?xml version="1.0" encoding="UTF-8" standalone="no"?>
<!-- Created with Inkscape (http://www.inkscape.org/) -->

<svg
   width="73.459358mm"
   height="54.939545mm"
   viewBox="0 0 73.459358 54.939545"
   version="1.1"
   id="svg5"
   inkscape:version="1.1.2 (0a00cf5339, 2022-02-04)"
   sodipodi:docname="SheepLogoV2.svg"
   xmlns:inkscape="http://www.inkscape.org/namespaces/inkscape"
   xmlns:sodipodi="http://sodipodi.sourceforge.net/DTD/sodipodi-0.dtd"
   xmlns="http://www.w3.org/2000/svg"
   xmlns:svg="http://www.w3.org/2000/svg">
  <sodipodi:namedview
     id="namedview7"
     pagecolor="#505050"
     bordercolor="#eeeeee"
     borderopacity="1"
     inkscape:pageshadow="0"
     inkscape:pageopacity="0"
     inkscape:pagecheckerboard="0"
     inkscape:document-units="mm"
     showgrid="false"
     showguides="false"
     inkscape:zoom="2.1589478"
     inkscape:cx="106.07019"
     inkscape:cy="151.69427"
     inkscape:window-width="1846"
     inkscape:window-height="1016"
     inkscape:window-x="0"
     inkscape:window-y="0"
     inkscape:window-maximized="1"
     inkscape:current-layer="layer1" />
  <defs
     id="defs2" />
  <g
     inkscape:label="Ebene 1"
     inkscape:groupmode="layer"
     id="layer1"
     transform="translate(-51.43657,-57.716474)">
    <path
       id="path921"
       style="fill:#000000;fill-opacity:1;stroke:#000000;stroke-width:0.999999px;stroke-linecap:butt;stroke-linejoin:miter;stroke-opacity:1"
       inkscape:label="Head"
       d="m 248.15625,227.64062 c -11.61853,0.0326 -22.73459,5.98562 -26.94727,20.6504 -5.52171,2.7239 -34.57233,20.4492 -24.02343,45.38867 10.83773,18.31784 37.34945,6.63216 44.49023,3.875 6.97943,-3.22028 17.69357,-9.41401 22.6875,-14.50586 6.79899,21.89655 15.59173,19.89265 18.00586,19.93945 3.2714,-0.25867 8.12662,-25.62111 -5.9043,-42.72266 2.11607,-15.38824 -4.57112,-24.75622 -11.67187,-28.76171 -5.16861,-2.48292 -10.96256,-3.8792 -16.63672,-3.86329 z m -10.93555,17.36133 a 5.6692913,5.6692913 0 0 1 5.66797,5.66797 5.6692913,5.6692913 0 0 1 -5.66797,5.66992 5.6692913,5.6692913 0 0 1 -5.66992,-5.66992 5.6692913,5.6692913 0 0 1 5.66992,-5.66797 z"
       transform="scale(0.26458333)" />
    <path
       style="fill:#000000;fill-opacity:1;stroke:#000000;stroke-width:0.264583px;stroke-linecap:butt;stroke-linejoin:miter;stroke-opacity:1"
       d="m 52.826448,112.52625 c 25.553826,-5.06162 46.358069,-5.10421 72.018342,-0.0416 -20.27918,-8.5002 -51.577027,-8.59434 -72.018342,0.0416 z"
       id="path4514"
       sodipodi:nodetypes="ccc"
       inkscape:label="Ground" />
    <g
       id="g11318"
       inkscape:label="Feet">
      <g
         id="g11310"
         inkscape:label="Back">
        <rect
           style="fill:#000000;fill-opacity:1;stroke-width:2.24415"
           id="rect5226-3"
           width="3.1467402"
           height="7.6777134"
           x="103.57334"
           y="100.02821"
           inkscape:label="Foot right" />
        <rect
           style="fill:#000000;fill-opacity:1;stroke-width:2.11629"
           id="rect5226-3-6"
           width="3.1467402"
           height="6.8277698"
           x="96.037773"
           y="100.59428"
           inkscape:label="Foot left" />
      </g>
      <g
         id="g11306"
         inkscape:label="Front">
        <rect
           style="fill:#000000;fill-opacity:1;stroke-width:2.575"
           id="rect5226"
           width="3.1467402"
           height="10.108438"
           x="73.299919"
           y="97.03862"
           inkscape:label="Foot left" />
        <rect
           style="fill:#000000;fill-opacity:1;stroke-width:2.11629"
           id="rect5226-3-6-7"
           width="3.1467402"
           height="6.8277698"
           x="80.889275"
           y="100.31495"
           inkscape:label="Foot right" />
      </g>
    </g>
    <path
       style="fill:none;stroke:#000000;stroke-width:2.5;stroke-linecap:butt;stroke-linejoin:miter;stroke-miterlimit:4;stroke-dasharray:none;stroke-opacity:1"
       d="m 72.492925,63.226007 c 4.809144,-5.551994 9.469853,-4.605703 13.128587,-0.978281 5.743418,-4.624658 9.450896,-3.950526 13.46743,-0.522314 6.752508,-2.388493 8.198428,1.183753 9.640628,4.313234 5.72294,0.01303 8.15426,3.525872 7.14483,8.260206 8.5043,0.771141 7.13216,10.428688 0.0728,11.080291 1.58521,4.728298 -0.0939,8.763627 -4.98466,9.420769 -1.51007,4.526831 -6.74303,6.473068 -9.76486,3.654163 -2.44164,3.366605 -8.295371,3.451135 -10.792562,0.561073 -4.186295,1.901722 -8.249202,3.642822 -10.736707,-1.514981 -2.814502,0.547702 -7.675098,0.262512 -8.031883,-3.8202 -4.440979,-0.289921 -6.466466,-2.417604 -5.250217,-7.410556 -4.294277,-2.41185 -5.095012,-6.453432 -3.141329,-10.400234 l 3.594587,-7.5727 z"
       id="path5441"
       sodipodi:nodetypes="ccccccccccccccc"
       inkscape:label="Body" />
  </g>
</svg>
